<?xml version="1.0" encoding="utf-8"?>
<!DOCTYPE svg PUBLIC "-//W3C//DTD SVG 1.1//EN" "http://www.w3.org/Graphics/SVG/1.1/DTD/svg11.dtd">
<svg x="0" y="0" width="100%" height="100%" overflow="hidden" preserveAspectRatio="xMidYMid" font-size="0" xml:space="default" xmlns="http://www.w3.org/2000/svg" xmlns:xlink="http://www.w3.org/1999/xlink" xmlns:xml="http://www.w3.org/XML/1998/namespace" version="1.1">
  <g stroke-width="82.5" stroke-miterlimit="10" transform="scale(1, -1) translate(50, -332.58)" xml:space="default" style="fill:#FFFFFF;stroke:#FFFB00;">
    <path d="M201.74 139.48 L201.74 113.08 L17.6 113.08 L17.6 139.48 L201.74 139.48 z M125.62 178.64 L125.62 62.48 L94.82 62.48 L94.82 178.64 L125.62 178.64 z M185.68 7.48 L185.68 -18.26 L51.26 -18.26 L51.26 7.48 L185.68 7.48 z M62.92 84.04 L62.92 -24.86 L33.88 -24.86 L33.88 84.04 L62.92 84.04 z M156.64 52.14 L46.86 52.14 L46.86 77.88 L164.78 77.88 Q173.8 77.44 179.74 71.94 Q185.68 66.44 185.68 56.54 L185.68 -24.86 L156.64 -24.86 L156.64 52.14 z" xml:space="default" />
    <path d="M408.1 7.04 L408.1 -18.7 L257.84 -18.7 L257.84 7.04 L408.1 7.04 z M270.16 178.64 L270.16 -25.3 L240.24 -25.3 L240.24 178.64 L270.16 178.64 z M389.84 146.52 L253.44 146.52 L253.44 172.48 L398.86 172.48 Q407.88 172.04 413.82 166.54 Q419.76 160.82 419.76 151.14 L419.76 -25.3 L389.84 -25.3 L389.84 146.52 z M382.36 136.62 L382.36 113.96 L277.64 113.96 L277.64 136.62 L382.36 136.62 z M377.3 95.48 L377.3 73.04 L282.7 73.04 L282.7 95.48 L377.3 95.48 z M382.36 39.82 L382.36 17.38 L277.64 17.38 L277.64 39.82 L382.36 39.82 z M344.96 128.26 L344.96 30.58 L315.04 30.58 L315.04 128.26 L344.96 128.26 z M368.94 70.84 L376.86 46.42 L355.74 40.7 L347.82 65.12 L368.94 70.84 z" xml:space="default" />
  </g>
  <g stroke-width="66" stroke-miterlimit="10" transform="scale(1, -1) translate(50, -332.58)" xml:space="default" style="fill:#FFFFFF;stroke:#FFFBBF;">
    <path d="M201.74 139.48 L201.74 113.08 L17.6 113.08 L17.6 139.48 L201.74 139.48 z M125.62 178.64 L125.62 62.48 L94.82 62.48 L94.82 178.64 L125.62 178.64 z M185.68 7.48 L185.68 -18.26 L51.26 -18.26 L51.26 7.48 L185.68 7.48 z M62.92 84.04 L62.92 -24.86 L33.88 -24.86 L33.88 84.04 L62.92 84.04 z M156.64 52.14 L46.86 52.14 L46.86 77.88 L164.78 77.88 Q173.8 77.44 179.74 71.94 Q185.68 66.44 185.68 56.54 L185.68 -24.86 L156.64 -24.86 L156.64 52.14 z" xml:space="default" />
    <path d="M408.1 7.04 L408.1 -18.7 L257.84 -18.7 L257.84 7.04 L408.1 7.04 z M270.16 178.64 L270.16 -25.3 L240.24 -25.3 L240.24 178.64 L270.16 178.64 z M389.84 146.52 L253.44 146.52 L253.44 172.48 L398.86 172.48 Q407.88 172.04 413.82 166.54 Q419.76 160.82 419.76 151.14 L419.76 -25.3 L389.84 -25.3 L389.84 146.52 z M382.36 136.62 L382.36 113.96 L277.64 113.96 L277.64 136.62 L382.36 136.62 z M377.3 95.48 L377.3 73.04 L282.7 73.04 L282.7 95.48 L377.3 95.48 z M382.36 39.82 L382.36 17.38 L277.64 17.38 L277.64 39.82 L382.36 39.82 z M344.96 128.26 L344.96 30.58 L315.04 30.58 L315.04 128.26 L344.96 128.26 z M368.94 70.84 L376.86 46.42 L355.74 40.7 L347.82 65.12 L368.94 70.84 z" xml:space="default" />
  </g>
  <g stroke-width="46.5" stroke-miterlimit="10" transform="scale(1, -1) translate(50, -332.58)" xml:space="default" style="fill:#FFFFFF;stroke:#6E26FF;">
    <path d="M201.74 139.48 L201.74 113.08 L17.6 113.08 L17.6 139.48 L201.74 139.48 z M125.62 178.64 L125.62 62.48 L94.82 62.48 L94.82 178.64 L125.62 178.64 z M185.68 7.48 L185.68 -18.26 L51.26 -18.26 L51.26 7.48 L185.68 7.48 z M62.92 84.04 L62.92 -24.86 L33.88 -24.86 L33.88 84.04 L62.92 84.04 z M156.64 52.14 L46.86 52.14 L46.86 77.88 L164.78 77.88 Q173.8 77.44 179.74 71.94 Q185.68 66.44 185.68 56.54 L185.68 -24.86 L156.64 -24.86 L156.64 52.14 z" xml:space="default" />
    <path d="M408.1 7.04 L408.1 -18.7 L257.84 -18.7 L257.84 7.04 L408.1 7.04 z M270.16 178.64 L270.16 -25.3 L240.24 -25.3 L240.24 178.64 L270.16 178.64 z M389.84 146.52 L253.44 146.52 L253.44 172.48 L398.86 172.48 Q407.88 172.04 413.82 166.54 Q419.76 160.82 419.76 151.14 L419.76 -25.3 L389.84 -25.3 L389.84 146.52 z M382.36 136.62 L382.36 113.96 L277.64 113.96 L277.64 136.62 L382.36 136.62 z M377.3 95.48 L377.3 73.04 L282.7 73.04 L282.7 95.48 L377.3 95.48 z M382.36 39.82 L382.36 17.38 L277.64 17.38 L277.64 39.82 L382.36 39.82 z M344.96 128.26 L344.96 30.58 L315.04 30.58 L315.04 128.26 L344.96 128.26 z M368.94 70.84 L376.86 46.42 L355.74 40.7 L347.82 65.12 L368.94 70.84 z" xml:space="default" />
  </g>
  <g stroke-width="7.5" stroke-miterlimit="10" transform="scale(1, -1) translate(50, -332.58)" xml:space="default" style="fill:#FFFFFF;stroke:#15FFD8;">
    <path d="M201.74 139.48 L201.74 113.08 L17.6 113.08 L17.6 139.48 L201.74 139.48 z M125.62 178.64 L125.62 62.48 L94.82 62.48 L94.82 178.64 L125.62 178.64 z M185.68 7.48 L185.68 -18.26 L51.26 -18.26 L51.26 7.48 L185.68 7.48 z M62.92 84.04 L62.92 -24.86 L33.88 -24.86 L33.88 84.04 L62.92 84.04 z M156.64 52.14 L46.86 52.14 L46.86 77.88 L164.78 77.88 Q173.8 77.44 179.74 71.94 Q185.68 66.44 185.68 56.54 L185.68 -24.86 L156.64 -24.86 L156.64 52.14 z" xml:space="default" />
    <path d="M408.1 7.04 L408.1 -18.7 L257.84 -18.7 L257.84 7.04 L408.1 7.04 z M270.16 178.64 L270.16 -25.3 L240.24 -25.3 L240.24 178.64 L270.16 178.64 z M389.84 146.52 L253.44 146.52 L253.44 172.48 L398.86 172.48 Q407.88 172.04 413.82 166.54 Q419.76 160.82 419.76 151.14 L419.76 -25.3 L389.84 -25.3 L389.84 146.52 z M382.36 136.62 L382.36 113.96 L277.64 113.96 L277.64 136.62 L382.36 136.62 z M377.3 95.48 L377.3 73.04 L282.7 73.04 L282.7 95.48 L377.3 95.48 z M382.36 39.82 L382.36 17.38 L277.64 17.38 L277.64 39.82 L382.36 39.82 z M344.96 128.26 L344.96 30.58 L315.04 30.58 L315.04 128.26 L344.96 128.26 z M368.94 70.84 L376.86 46.42 L355.74 40.7 L347.82 65.12 L368.94 70.84 z" xml:space="default" />
  </g>
</svg>